<mxfile host="app.diagrams.net" modified="2021-04-23T07:43:10.550Z" agent="5.0 (Windows NT 6.1; Win64; x64) AppleWebKit/537.36 (KHTML, like Gecko) Chrome/90.0.4430.85 Safari/537.36" etag="Hmpg1OVqUwjTKaNP46J_" version="14.6.6" type="github">
  <diagram id="qmrN9jZycb7R3XG8XhgL" name="第 1 页">
    <mxGraphModel dx="536" dy="430" grid="1" gridSize="10" guides="1" tooltips="1" connect="1" arrows="1" fold="1" page="1" pageScale="1" pageWidth="827" pageHeight="1169" math="0" shadow="0">
      <root>
        <mxCell id="0" />
        <mxCell id="1" parent="0" />
        <mxCell id="jzsqYvOyDseexeyxyNd6-1" value="1 x 2&lt;sup style=&quot;font-size: 16px&quot;&gt;3&lt;/sup&gt;" style="text;html=1;align=center;verticalAlign=middle;resizable=0;points=[];autosize=1;fontSize=16;" parent="1" vertex="1">
          <mxGeometry x="120" y="405" width="60" height="30" as="geometry" />
        </mxCell>
        <mxCell id="jzsqYvOyDseexeyxyNd6-2" value="0 x 2&lt;font style=&quot;font-size: 16px&quot;&gt;&lt;sup style=&quot;font-size: 16px&quot;&gt;2&lt;/sup&gt;&lt;/font&gt;" style="text;html=1;align=center;verticalAlign=middle;resizable=0;points=[];autosize=1;fontSize=16;" parent="1" vertex="1">
          <mxGeometry x="190" y="405" width="60" height="30" as="geometry" />
        </mxCell>
        <mxCell id="jzsqYvOyDseexeyxyNd6-3" value="1 x 2&lt;font style=&quot;font-size: 16px&quot;&gt;&lt;sup style=&quot;font-size: 16px&quot;&gt;1&lt;/sup&gt;&lt;/font&gt;" style="text;html=1;align=center;verticalAlign=middle;resizable=0;points=[];autosize=1;fontSize=16;" parent="1" vertex="1">
          <mxGeometry x="250" y="405" width="60" height="30" as="geometry" />
        </mxCell>
        <mxCell id="jzsqYvOyDseexeyxyNd6-4" value="0 x 2&lt;span style=&quot;font-size: 16px&quot;&gt;&lt;sup style=&quot;font-size: 16px&quot;&gt;0&lt;/sup&gt;&lt;/span&gt;" style="text;html=1;align=center;verticalAlign=middle;resizable=0;points=[];autosize=1;fontSize=16;" parent="1" vertex="1">
          <mxGeometry x="310" y="405" width="60" height="30" as="geometry" />
        </mxCell>
        <mxCell id="jzsqYvOyDseexeyxyNd6-5" value="&lt;sup style=&quot;font-size: 16px&quot;&gt;&lt;font style=&quot;font-size: 16px&quot;&gt;1 x 2&lt;/font&gt;&lt;span style=&quot;font-size: 16px&quot;&gt;&lt;sup style=&quot;font-size: 16px&quot;&gt;&lt;font color=&quot;#ff0000&quot;&gt;-1&lt;/font&gt;&lt;/sup&gt;&lt;/span&gt;&lt;/sup&gt;" style="text;html=1;align=center;verticalAlign=middle;resizable=0;points=[];autosize=1;fontSize=16;" parent="1" vertex="1">
          <mxGeometry x="420" y="405" width="60" height="40" as="geometry" />
        </mxCell>
        <mxCell id="jzsqYvOyDseexeyxyNd6-6" value="8" style="text;html=1;align=center;verticalAlign=middle;resizable=0;points=[];autosize=1;fontSize=16;fillColor=#d5e8d4;strokeColor=#82b366;" parent="1" vertex="1">
          <mxGeometry x="140" y="500" width="20" height="20" as="geometry" />
        </mxCell>
        <mxCell id="jzsqYvOyDseexeyxyNd6-7" value="0" style="text;html=1;align=center;verticalAlign=middle;resizable=0;points=[];autosize=1;fontSize=16;fillColor=#d5e8d4;strokeColor=#82b366;" parent="1" vertex="1">
          <mxGeometry x="201.84" y="500" width="20" height="20" as="geometry" />
        </mxCell>
        <mxCell id="jzsqYvOyDseexeyxyNd6-8" value="2" style="text;html=1;align=center;verticalAlign=middle;resizable=0;points=[];autosize=1;fontSize=16;fillColor=#d5e8d4;strokeColor=#82b366;" parent="1" vertex="1">
          <mxGeometry x="263.06" y="500" width="20" height="20" as="geometry" />
        </mxCell>
        <mxCell id="jzsqYvOyDseexeyxyNd6-9" value="0" style="text;html=1;align=center;verticalAlign=middle;resizable=0;points=[];autosize=1;fontSize=16;fillColor=#d5e8d4;strokeColor=#82b366;" parent="1" vertex="1">
          <mxGeometry x="330" y="500" width="20" height="20" as="geometry" />
        </mxCell>
        <mxCell id="jzsqYvOyDseexeyxyNd6-10" value="." style="text;html=1;align=center;verticalAlign=middle;resizable=0;points=[];autosize=1;fontSize=16;fontStyle=1;fillColor=#f8cecc;strokeColor=#b85450;" parent="1" vertex="1">
          <mxGeometry x="380" y="415" width="20" height="20" as="geometry" />
        </mxCell>
        <mxCell id="jzsqYvOyDseexeyxyNd6-11" value="0.5" style="text;html=1;align=center;verticalAlign=middle;resizable=0;points=[];autosize=1;fontSize=16;fillColor=#d5e8d4;strokeColor=#82b366;" parent="1" vertex="1">
          <mxGeometry x="430" y="500" width="40" height="20" as="geometry" />
        </mxCell>
        <mxCell id="jzsqYvOyDseexeyxyNd6-12" value="+" style="text;html=1;align=center;verticalAlign=middle;resizable=0;points=[];autosize=1;fontSize=16;" parent="1" vertex="1">
          <mxGeometry x="170" y="500" width="20" height="20" as="geometry" />
        </mxCell>
        <mxCell id="jzsqYvOyDseexeyxyNd6-13" value="+" style="text;html=1;align=center;verticalAlign=middle;resizable=0;points=[];autosize=1;fontSize=16;" parent="1" vertex="1">
          <mxGeometry x="230" y="500" width="20" height="20" as="geometry" />
        </mxCell>
        <mxCell id="jzsqYvOyDseexeyxyNd6-14" value="+" style="text;html=1;align=center;verticalAlign=middle;resizable=0;points=[];autosize=1;fontSize=16;" parent="1" vertex="1">
          <mxGeometry x="300" y="500" width="20" height="20" as="geometry" />
        </mxCell>
        <mxCell id="jzsqYvOyDseexeyxyNd6-15" value="+" style="text;html=1;align=center;verticalAlign=middle;resizable=0;points=[];autosize=1;fontSize=16;" parent="1" vertex="1">
          <mxGeometry x="380" y="500" width="20" height="20" as="geometry" />
        </mxCell>
        <mxCell id="jzsqYvOyDseexeyxyNd6-17" value="二进制" style="text;html=1;align=center;verticalAlign=middle;resizable=0;points=[];autosize=1;fontSize=16;" parent="1" vertex="1">
          <mxGeometry x="60" y="330" width="60" height="20" as="geometry" />
        </mxCell>
        <mxCell id="jzsqYvOyDseexeyxyNd6-18" value="十进制" style="text;html=1;align=center;verticalAlign=middle;resizable=0;points=[];autosize=1;fontSize=16;" parent="1" vertex="1">
          <mxGeometry x="60" y="500" width="60" height="20" as="geometry" />
        </mxCell>
        <mxCell id="jzsqYvOyDseexeyxyNd6-19" value="" style="shape=flexArrow;endArrow=classic;html=1;fontSize=16;endWidth=16.521739130434785;endSize=4.643478260869565;fillColor=#fff2cc;strokeColor=none;" parent="1" edge="1">
          <mxGeometry width="50" height="50" relative="1" as="geometry">
            <mxPoint x="149.56999999999994" y="370" as="sourcePoint" />
            <mxPoint x="150" y="405" as="targetPoint" />
          </mxGeometry>
        </mxCell>
        <mxCell id="jzsqYvOyDseexeyxyNd6-20" value="" style="shape=flexArrow;endArrow=classic;html=1;fontSize=16;endWidth=16.521739130434785;endSize=4.643478260869565;fillColor=#fff2cc;strokeColor=none;" parent="1" edge="1">
          <mxGeometry width="50" height="50" relative="1" as="geometry">
            <mxPoint x="210" y="370" as="sourcePoint" />
            <mxPoint x="210.43000000000006" y="405" as="targetPoint" />
          </mxGeometry>
        </mxCell>
        <mxCell id="jzsqYvOyDseexeyxyNd6-21" value="" style="shape=flexArrow;endArrow=classic;html=1;fontSize=16;endWidth=16.521739130434785;endSize=4.643478260869565;fillColor=#fff2cc;strokeColor=none;" parent="1" edge="1">
          <mxGeometry width="50" height="50" relative="1" as="geometry">
            <mxPoint x="270" y="370" as="sourcePoint" />
            <mxPoint x="270.43000000000006" y="405" as="targetPoint" />
          </mxGeometry>
        </mxCell>
        <mxCell id="jzsqYvOyDseexeyxyNd6-22" value="" style="shape=flexArrow;endArrow=classic;html=1;fontSize=16;endWidth=16.521739130434785;endSize=4.643478260869565;fillColor=#fff2cc;strokeColor=none;" parent="1" edge="1">
          <mxGeometry width="50" height="50" relative="1" as="geometry">
            <mxPoint x="339.56999999999994" y="370" as="sourcePoint" />
            <mxPoint x="340" y="405" as="targetPoint" />
          </mxGeometry>
        </mxCell>
        <mxCell id="jzsqYvOyDseexeyxyNd6-23" value="" style="shape=flexArrow;endArrow=classic;html=1;fontSize=16;endWidth=16.521739130434785;endSize=4.643478260869565;fillColor=#fff2cc;strokeColor=none;" parent="1" edge="1">
          <mxGeometry width="50" height="50" relative="1" as="geometry">
            <mxPoint x="449.56999999999994" y="370" as="sourcePoint" />
            <mxPoint x="450" y="405" as="targetPoint" />
          </mxGeometry>
        </mxCell>
        <mxCell id="jzsqYvOyDseexeyxyNd6-24" value="1" style="rounded=0;whiteSpace=wrap;html=1;fontSize=16;fillColor=#ffe6cc;strokeColor=#d79b00;" parent="1" vertex="1">
          <mxGeometry x="120" y="320" width="61.22448979591836" height="40" as="geometry" />
        </mxCell>
        <mxCell id="jzsqYvOyDseexeyxyNd6-25" value="0" style="rounded=0;whiteSpace=wrap;html=1;fontSize=16;fillColor=#ffe6cc;strokeColor=#d79b00;" parent="1" vertex="1">
          <mxGeometry x="181.22448979591837" y="320" width="61.22448979591836" height="40" as="geometry" />
        </mxCell>
        <mxCell id="jzsqYvOyDseexeyxyNd6-26" value="1" style="rounded=0;whiteSpace=wrap;html=1;fontSize=16;fillColor=#ffe6cc;strokeColor=#d79b00;" parent="1" vertex="1">
          <mxGeometry x="242.44897959183672" y="320" width="61.22448979591836" height="40" as="geometry" />
        </mxCell>
        <mxCell id="jzsqYvOyDseexeyxyNd6-27" value="0" style="rounded=0;whiteSpace=wrap;html=1;fontSize=16;fillColor=#ffe6cc;strokeColor=#d79b00;" parent="1" vertex="1">
          <mxGeometry x="303.6734693877551" y="320" width="61.22448979591836" height="40" as="geometry" />
        </mxCell>
        <mxCell id="jzsqYvOyDseexeyxyNd6-28" value="1" style="rounded=0;whiteSpace=wrap;html=1;fontSize=16;fillColor=#ffe6cc;strokeColor=#d79b00;" parent="1" vertex="1">
          <mxGeometry x="418.7755102040816" y="320" width="61.22448979591836" height="40" as="geometry" />
        </mxCell>
        <mxCell id="jzsqYvOyDseexeyxyNd6-29" value="&lt;b&gt;.&lt;/b&gt;" style="text;html=1;align=center;verticalAlign=middle;resizable=0;points=[];autosize=1;fontSize=16;fillColor=#f8cecc;strokeColor=#b85450;" parent="1" vertex="1">
          <mxGeometry x="377.14285714285705" y="340" width="20" height="20" as="geometry" />
        </mxCell>
        <mxCell id="jzsqYvOyDseexeyxyNd6-30" value="" style="shape=flexArrow;endArrow=classic;html=1;fontSize=16;endWidth=16.521739130434785;endSize=4.643478260869565;fillColor=#fff2cc;strokeColor=none;" parent="1" edge="1">
          <mxGeometry width="50" height="50" relative="1" as="geometry">
            <mxPoint x="150" y="445" as="sourcePoint" />
            <mxPoint x="150.43000000000006" y="480" as="targetPoint" />
          </mxGeometry>
        </mxCell>
        <mxCell id="jzsqYvOyDseexeyxyNd6-31" value="" style="shape=flexArrow;endArrow=classic;html=1;fontSize=16;endWidth=16.521739130434785;endSize=4.643478260869565;fillColor=#fff2cc;strokeColor=none;" parent="1" edge="1">
          <mxGeometry width="50" height="50" relative="1" as="geometry">
            <mxPoint x="210.43000000000006" y="445" as="sourcePoint" />
            <mxPoint x="210.86000000000013" y="480" as="targetPoint" />
          </mxGeometry>
        </mxCell>
        <mxCell id="jzsqYvOyDseexeyxyNd6-32" value="" style="shape=flexArrow;endArrow=classic;html=1;fontSize=16;endWidth=16.521739130434785;endSize=4.643478260869565;fillColor=#fff2cc;strokeColor=none;" parent="1" edge="1">
          <mxGeometry width="50" height="50" relative="1" as="geometry">
            <mxPoint x="270.43000000000006" y="445" as="sourcePoint" />
            <mxPoint x="270.8600000000001" y="480" as="targetPoint" />
          </mxGeometry>
        </mxCell>
        <mxCell id="jzsqYvOyDseexeyxyNd6-33" value="" style="shape=flexArrow;endArrow=classic;html=1;fontSize=16;endWidth=16.521739130434785;endSize=4.643478260869565;fillColor=#fff2cc;strokeColor=none;" parent="1" edge="1">
          <mxGeometry width="50" height="50" relative="1" as="geometry">
            <mxPoint x="340" y="445" as="sourcePoint" />
            <mxPoint x="340.43000000000006" y="480" as="targetPoint" />
          </mxGeometry>
        </mxCell>
        <mxCell id="jzsqYvOyDseexeyxyNd6-34" value="" style="shape=flexArrow;endArrow=classic;html=1;fontSize=16;endWidth=16.521739130434785;endSize=4.643478260869565;fillColor=#fff2cc;strokeColor=none;" parent="1" edge="1">
          <mxGeometry width="50" height="50" relative="1" as="geometry">
            <mxPoint x="450" y="445" as="sourcePoint" />
            <mxPoint x="450.43000000000006" y="480" as="targetPoint" />
          </mxGeometry>
        </mxCell>
        <mxCell id="jzsqYvOyDseexeyxyNd6-35" value="0" style="rounded=0;whiteSpace=wrap;html=1;fontSize=16;fillColor=#ffe6cc;strokeColor=#d79b00;" parent="1" vertex="1">
          <mxGeometry x="479.9955102040816" y="320" width="61.22448979591836" height="40" as="geometry" />
        </mxCell>
        <mxCell id="jzsqYvOyDseexeyxyNd6-36" value="1" style="rounded=0;whiteSpace=wrap;html=1;fontSize=16;fillColor=#ffe6cc;strokeColor=#d79b00;" parent="1" vertex="1">
          <mxGeometry x="541.2155102040816" y="320" width="61.22448979591836" height="40" as="geometry" />
        </mxCell>
        <mxCell id="jzsqYvOyDseexeyxyNd6-39" value="&lt;sup style=&quot;font-size: 16px&quot;&gt;&lt;font style=&quot;font-size: 16px&quot;&gt;0 x 2&lt;/font&gt;&lt;span style=&quot;font-size: 16px&quot;&gt;&lt;sup style=&quot;font-size: 16px&quot;&gt;&lt;font color=&quot;#ff0000&quot;&gt;-2&lt;/font&gt;&lt;/sup&gt;&lt;/span&gt;&lt;/sup&gt;" style="text;html=1;align=center;verticalAlign=middle;resizable=0;points=[];autosize=1;fontSize=16;" parent="1" vertex="1">
          <mxGeometry x="480" y="405" width="60" height="40" as="geometry" />
        </mxCell>
        <mxCell id="jzsqYvOyDseexeyxyNd6-40" value="" style="shape=flexArrow;endArrow=classic;html=1;fontSize=16;endWidth=16.521739130434785;endSize=4.643478260869565;fillColor=#fff2cc;strokeColor=none;" parent="1" edge="1">
          <mxGeometry width="50" height="50" relative="1" as="geometry">
            <mxPoint x="509.56999999999994" y="370" as="sourcePoint" />
            <mxPoint x="510" y="405" as="targetPoint" />
          </mxGeometry>
        </mxCell>
        <mxCell id="jzsqYvOyDseexeyxyNd6-41" value="&lt;sup style=&quot;font-size: 16px&quot;&gt;&lt;font style=&quot;font-size: 16px&quot;&gt;1 x 2&lt;/font&gt;&lt;span style=&quot;font-size: 16px&quot;&gt;&lt;sup style=&quot;font-size: 16px&quot;&gt;&lt;font color=&quot;#ff0000&quot;&gt;-3&lt;/font&gt;&lt;/sup&gt;&lt;/span&gt;&lt;/sup&gt;" style="text;html=1;align=center;verticalAlign=middle;resizable=0;points=[];autosize=1;fontSize=16;" parent="1" vertex="1">
          <mxGeometry x="542.44" y="405" width="60" height="40" as="geometry" />
        </mxCell>
        <mxCell id="jzsqYvOyDseexeyxyNd6-42" value="" style="shape=flexArrow;endArrow=classic;html=1;fontSize=16;endWidth=16.521739130434785;endSize=4.643478260869565;fillColor=#fff2cc;strokeColor=none;" parent="1" edge="1">
          <mxGeometry width="50" height="50" relative="1" as="geometry">
            <mxPoint x="572.01" y="370" as="sourcePoint" />
            <mxPoint x="572.44" y="405" as="targetPoint" />
          </mxGeometry>
        </mxCell>
        <mxCell id="jzsqYvOyDseexeyxyNd6-43" value="0" style="text;html=1;align=center;verticalAlign=middle;resizable=0;points=[];autosize=1;fontSize=16;fillColor=#d5e8d4;strokeColor=#82b366;" parent="1" vertex="1">
          <mxGeometry x="500.61" y="500" width="20" height="20" as="geometry" />
        </mxCell>
        <mxCell id="jzsqYvOyDseexeyxyNd6-44" value="" style="shape=flexArrow;endArrow=classic;html=1;fontSize=16;endWidth=16.521739130434785;endSize=4.643478260869565;fillColor=#fff2cc;strokeColor=none;" parent="1" edge="1">
          <mxGeometry width="50" height="50" relative="1" as="geometry">
            <mxPoint x="510.61" y="445" as="sourcePoint" />
            <mxPoint x="511.0400000000001" y="480" as="targetPoint" />
          </mxGeometry>
        </mxCell>
        <mxCell id="jzsqYvOyDseexeyxyNd6-47" value="0.125" style="text;html=1;align=center;verticalAlign=middle;resizable=0;points=[];autosize=1;fontSize=16;fillColor=#d5e8d4;strokeColor=#82b366;" parent="1" vertex="1">
          <mxGeometry x="541.83" y="500" width="60" height="20" as="geometry" />
        </mxCell>
        <mxCell id="jzsqYvOyDseexeyxyNd6-48" value="" style="shape=flexArrow;endArrow=classic;html=1;fontSize=16;endWidth=16.521739130434785;endSize=4.643478260869565;fillColor=#fff2cc;strokeColor=none;" parent="1" edge="1">
          <mxGeometry width="50" height="50" relative="1" as="geometry">
            <mxPoint x="571.8300000000002" y="445" as="sourcePoint" />
            <mxPoint x="572.26" y="480" as="targetPoint" />
          </mxGeometry>
        </mxCell>
        <mxCell id="jzsqYvOyDseexeyxyNd6-49" value="+" style="text;html=1;align=center;verticalAlign=middle;resizable=0;points=[];autosize=1;fontSize=16;" parent="1" vertex="1">
          <mxGeometry x="473" y="500" width="20" height="20" as="geometry" />
        </mxCell>
        <mxCell id="jzsqYvOyDseexeyxyNd6-50" value="+" style="text;html=1;align=center;verticalAlign=middle;resizable=0;points=[];autosize=1;fontSize=16;" parent="1" vertex="1">
          <mxGeometry x="520" y="500" width="20" height="20" as="geometry" />
        </mxCell>
        <mxCell id="jzsqYvOyDseexeyxyNd6-51" value="= &lt;font color=&quot;#3333ff&quot;&gt;10.625&lt;/font&gt;" style="text;html=1;align=center;verticalAlign=middle;resizable=0;points=[];autosize=1;fontSize=16;fontStyle=1" parent="1" vertex="1">
          <mxGeometry x="601.83" y="500" width="80" height="20" as="geometry" />
        </mxCell>
      </root>
    </mxGraphModel>
  </diagram>
</mxfile>
